<svg width="145" height="118" viewBox="0 0 145 118" fill="none" xmlns="http://www.w3.org/2000/svg">
<ellipse cx="54" cy="55.6726" rx="35" ry="34.0769" fill="#F58120"/>
<path d="M65.9885 56.2247C65.9885 55.2414 65.9069 54.5239 65.7302 53.7798H54.2402V58.2178H60.9846C60.8487 59.3207 60.1144 60.9816 58.4826 62.0977L58.4598 62.2463L62.0927 64.9965L62.3444 65.021C64.6559 62.9349 65.9885 59.8654 65.9885 56.2247Z" fill="white"/>
<path d="M54.2391 67.9173C57.5433 67.9173 60.3171 66.8543 62.3432 65.0207L58.4815 62.0973C57.4481 62.8016 56.0611 63.2932 54.2391 63.2932C51.0029 63.2932 48.2562 61.2071 47.2771 58.3237L47.1336 58.3356L43.356 61.1925L43.3066 61.3267C45.3191 65.2332 49.4527 67.9173 54.2391 67.9173Z" fill="white"/>
<path d="M47.2778 58.3238C47.0194 57.5797 46.8699 56.7824 46.8699 55.9586C46.8699 55.1347 47.0194 54.3375 47.2642 53.5934L47.2573 53.4349L43.4324 50.5322L43.3073 50.5904C42.4779 52.2115 42.002 54.0319 42.002 55.9586C42.002 57.8853 42.4779 59.7056 43.3073 61.3267L47.2778 58.3238Z" fill="white"/>
<path d="M54.2391 48.624C56.537 48.624 58.0871 49.594 58.971 50.4046L62.4248 47.1093C60.3036 45.1826 57.5433 44 54.2391 44C49.4527 44 45.3191 46.6841 43.3066 50.5906L47.2635 53.5936C48.2562 50.7102 51.0029 48.624 54.2391 48.624Z" fill="white"/>
<circle cx="124.291" cy="55.7812" r="5" transform="rotate(-39.0785 124.291 55.7812)" fill="#192657"/>
<path d="M95.3105 43.8892L122.884 55.6353L115.882 27.184" stroke="#192657"/>
<circle cx="117.217" cy="28.0334" r="5" transform="rotate(-39.0785 117.217 28.0334)" fill="#1098F7"/>
<circle cx="97.0333" cy="44.4233" r="5" transform="rotate(-39.0785 97.0333 44.4233)" fill="#F58120"/>
<circle cx="24" cy="14" r="6" fill="#192657"/>
<circle cx="76" cy="10" r="9.5" stroke="#F58120"/>
<circle cx="90.5" cy="84.5" r="7" stroke="#1098F7"/>
<path d="M85.001 9C113.834 12.1667 164.201 28.2 135.001 67C98.501 115.5 59.001 135.5 34.501 95.5C10.001 55.5 -3.99902 25.5 28.001 27" stroke="#192657" stroke-width="0.5" stroke-dasharray="2 2 2 2 2 2"/>
<path d="M24 98H1V76" stroke="#192657" stroke-width="2"/>
<path d="M3.5 96V77C7.9 91 18 95.5 22.5 96H3.5Z" fill="#528FF5"/>
<line x1="26" y1="87.4189" x2="58" y2="87.4189" stroke="#192657"/>
<line x1="36" y1="91.4189" x2="58" y2="91.4189" stroke="#192657"/>
<rect x="9" y="2" width="3" height="35" fill="#528FF5"/>
<rect x="15" y="20" width="3" height="23" fill="#528FF5"/>
</svg>
